<svg width="400" height="500" xmlns="http://www.w3.org/2000/svg">
  <defs>
    <linearGradient id="vaseGradient" x1="0%" y1="0%" x2="100%" y2="0%">
      <stop offset="0%" style="stop-color:#8B4513;stop-opacity:1" />
      <stop offset="50%" style="stop-color:#D2691E;stop-opacity:1" />
      <stop offset="100%" style="stop-color:#8B4513;stop-opacity:1" />
    </linearGradient>
    <pattern id="pattern" x="0" y="0" width="40" height="40" patternUnits="userSpaceOnUse">
      <circle cx="20" cy="20" r="3" fill="#654321" opacity="0.3"/>
    </pattern>
  </defs>
  
  <!-- Vase body -->
  <path d="M150 450 Q100 400 120 300 Q140 200 160 150 Q180 100 200 100 Q220 100 240 150 Q260 200 280 300 Q300 400 250 450 Z" 
        fill="url(#vaseGradient)" stroke="#654321" stroke-width="2"/>
  
  <!-- Pattern overlay -->
  <path d="M150 450 Q100 400 120 300 Q140 200 160 150 Q180 100 200 100 Q220 100 240 150 Q260 200 280 300 Q300 400 250 450 Z" 
        fill="url(#pattern)" opacity="0.5"/>
  
  <!-- Vase neck -->
  <rect x="180" y="80" width="40" height="30" fill="url(#vaseGradient)" stroke="#654321" stroke-width="2"/>
  
  <!-- Vase rim -->
  <ellipse cx="200" cy="80" rx="25" ry="8" fill="url(#vaseGradient)" stroke="#654321" stroke-width="2"/>
  
  <!-- Decorative elements -->
  <circle cx="170" cy="180" r="8" fill="#CD853F" opacity="0.8"/>
  <circle cx="230" cy="180" r="8" fill="#CD853F" opacity="0.8"/>
  <circle cx="200" cy="220" r="10" fill="#CD853F" opacity="0.8"/>
  
  <!-- Traditional motifs -->
  <path d="M160 260 Q180 240 200 260 Q220 240 240 260" stroke="#654321" stroke-width="3" fill="none"/>
  <path d="M160 300 Q180 280 200 300 Q220 280 240 300" stroke="#654321" stroke-width="3" fill="none"/>
  
  <!-- Base -->
  <ellipse cx="200" cy="450" rx="50" ry="15" fill="#654321"/>
</svg>